# xmcd
#
# Track frame offsets:
#	150
#	19787
#	37254
#	54752
#	67744
#	83671
#	112976
#	133219
#	148617
#	166829
#	182959
#	200058
#	217853
#
# Disc length: 3119 seconds
#
# Revision: 1
# Processed by: cddbd v1.5.2PL0 Copyright (c) Steve Scherf et al.
# Submitted via: audiograbber 1.83.01
#
DISCID=b20c2d0d
DTITLE=Titio Luiz e Tia  Lurdes - Tempo Feliz
DYEAR=2010
DGENRE=Country
TTITLE0=Tempo Feliz
TTITLE1=Rumo a Brasilia
TTITLE2=O Show Continua
TTITLE3=Vem Meu Bem
TTITLE4=Vaneirando a Vaneira
TTITLE5=Sete em Uma
TTITLE6=Altas Horas
TTITLE7=Rancheirita
TTITLE8=Caloteira
TTITLE9=Visitando a Fronteira
TTITLE10=Sinal Verde
TTITLE11=Ta Melhorando
TTITLE12=Fazendeira de Bagé
EXTD=
EXTT0=
EXTT1=
EXTT2=
EXTT3=
EXTT4=
EXTT5=
EXTT6=
EXTT7=
EXTT8=
EXTT9=
EXTT10=
EXTT11=
EXTT12=
PLAYORDER=
